<mxfile host="app.diagrams.net" modified="2023-09-25T07:03:05.795Z" agent="Mozilla/5.0 (Macintosh; Intel Mac OS X 10_15_7) AppleWebKit/537.36 (KHTML, like Gecko) Chrome/116.0.0.0 Safari/537.36" etag="UzoI3QWDJYf62zkLuTkO" version="21.8.1" type="github">
  <diagram id="NhUPEk0FaMcbmMfJ17T6" name="Page-1">
    <mxGraphModel dx="860" dy="685" grid="1" gridSize="10" guides="1" tooltips="1" connect="1" arrows="1" fold="1" page="1" pageScale="1" pageWidth="850" pageHeight="1100" math="0" shadow="0">
      <root>
        <mxCell id="0" />
        <mxCell id="1" parent="0" />
        <mxCell id="NoShA8FLxkmNSl4R1kDr-106" style="edgeStyle=orthogonalEdgeStyle;rounded=0;orthogonalLoop=1;jettySize=auto;html=1;labelBackgroundColor=default;fontFamily=Helvetica;fontSize=11;fontColor=default;endArrow=classic;strokeColor=default;exitX=0.994;exitY=0.123;exitDx=0;exitDy=0;exitPerimeter=0;" parent="1" source="NoShA8FLxkmNSl4R1kDr-1" target="NoShA8FLxkmNSl4R1kDr-69" edge="1">
          <mxGeometry relative="1" as="geometry">
            <Array as="points">
              <mxPoint x="619" y="74" />
              <mxPoint x="619" y="50" />
            </Array>
          </mxGeometry>
        </mxCell>
        <mxCell id="NoShA8FLxkmNSl4R1kDr-1" value="User" style="swimlane;fontStyle=0;childLayout=stackLayout;horizontal=1;startSize=30;horizontalStack=0;resizeParent=1;resizeParentMax=0;resizeLast=0;collapsible=1;marginBottom=0;" parent="1" vertex="1">
          <mxGeometry x="460" y="70" width="140" height="30" as="geometry" />
        </mxCell>
        <mxCell id="NoShA8FLxkmNSl4R1kDr-7" value="Tweet" style="swimlane;fontStyle=0;childLayout=stackLayout;horizontal=1;startSize=30;horizontalStack=0;resizeParent=1;resizeParentMax=0;resizeLast=0;collapsible=1;marginBottom=0;" parent="1" vertex="1">
          <mxGeometry x="700" y="440" width="140" height="30" as="geometry" />
        </mxCell>
        <mxCell id="NoShA8FLxkmNSl4R1kDr-32" value="Favourite" style="swimlane;fontStyle=0;childLayout=stackLayout;horizontal=1;startSize=30;horizontalStack=0;resizeParent=1;resizeParentMax=0;resizeLast=0;collapsible=1;marginBottom=0;" parent="1" vertex="1">
          <mxGeometry x="160" y="310" width="140" height="30" as="geometry" />
        </mxCell>
        <mxCell id="NoShA8FLxkmNSl4R1kDr-37" value="Blue user" style="swimlane;fontStyle=0;childLayout=stackLayout;horizontal=1;startSize=30;horizontalStack=0;resizeParent=1;resizeParentMax=0;resizeLast=0;collapsible=1;marginBottom=0;" parent="1" vertex="1">
          <mxGeometry x="175" y="25" width="140" height="25" as="geometry" />
        </mxCell>
        <mxCell id="NoShA8FLxkmNSl4R1kDr-129" style="edgeStyle=orthogonalEdgeStyle;rounded=0;orthogonalLoop=1;jettySize=auto;html=1;entryX=0;entryY=0;entryDx=0;entryDy=0;labelBackgroundColor=default;fontFamily=Helvetica;fontSize=11;fontColor=default;endArrow=classic;strokeColor=default;" parent="1" source="NoShA8FLxkmNSl4R1kDr-42" target="NoShA8FLxkmNSl4R1kDr-61" edge="1">
          <mxGeometry relative="1" as="geometry" />
        </mxCell>
        <mxCell id="NoShA8FLxkmNSl4R1kDr-42" value="Grey user" style="swimlane;fontStyle=0;childLayout=stackLayout;horizontal=1;startSize=30;horizontalStack=0;resizeParent=1;resizeParentMax=0;resizeLast=0;collapsible=1;marginBottom=0;" parent="1" vertex="1">
          <mxGeometry x="70" y="112.5" width="140" height="22.5" as="geometry" />
        </mxCell>
        <mxCell id="NoShA8FLxkmNSl4R1kDr-44" value="Bot" style="swimlane;fontStyle=0;childLayout=stackLayout;horizontal=1;startSize=30;horizontalStack=0;resizeParent=1;resizeParentMax=0;resizeLast=0;collapsible=1;marginBottom=0;" parent="1" vertex="1">
          <mxGeometry x="175" y="170" width="140" height="30" as="geometry" />
        </mxCell>
        <mxCell id="NoShA8FLxkmNSl4R1kDr-47" value="ISA" style="strokeWidth=2;html=1;shape=mxgraph.flowchart.extract_or_measurement;whiteSpace=wrap;" parent="1" vertex="1">
          <mxGeometry x="355" y="80" width="95" height="60" as="geometry" />
        </mxCell>
        <mxCell id="NoShA8FLxkmNSl4R1kDr-55" value="" style="endArrow=none;html=1;rounded=0;labelBackgroundColor=default;fontFamily=Helvetica;fontSize=11;fontColor=default;strokeColor=default;entryX=0.189;entryY=0.617;entryDx=0;entryDy=0;entryPerimeter=0;exitX=1;exitY=1;exitDx=0;exitDy=0;" parent="1" target="NoShA8FLxkmNSl4R1kDr-47" edge="1" source="NoShA8FLxkmNSl4R1kDr-37">
          <mxGeometry width="50" height="50" relative="1" as="geometry">
            <mxPoint x="315" y="65" as="sourcePoint" />
            <mxPoint x="365" y="15" as="targetPoint" />
          </mxGeometry>
        </mxCell>
        <mxCell id="NoShA8FLxkmNSl4R1kDr-57" value="" style="endArrow=none;html=1;rounded=0;labelBackgroundColor=default;fontFamily=Helvetica;fontSize=11;fontColor=default;strokeColor=default;exitX=1;exitY=0.5;exitDx=0;exitDy=0;entryX=0.107;entryY=0.659;entryDx=0;entryDy=0;entryPerimeter=0;" parent="1" source="NoShA8FLxkmNSl4R1kDr-61" target="NoShA8FLxkmNSl4R1kDr-47" edge="1">
          <mxGeometry width="50" height="50" relative="1" as="geometry">
            <mxPoint x="325" y="75" as="sourcePoint" />
            <mxPoint x="375" y="125" as="targetPoint" />
          </mxGeometry>
        </mxCell>
        <mxCell id="NoShA8FLxkmNSl4R1kDr-60" value="" style="endArrow=none;html=1;rounded=0;labelBackgroundColor=default;fontFamily=Helvetica;fontSize=11;fontColor=default;strokeColor=default;exitX=0.744;exitY=0.439;exitDx=0;exitDy=0;exitPerimeter=0;" parent="1" source="NoShA8FLxkmNSl4R1kDr-47" target="NoShA8FLxkmNSl4R1kDr-1" edge="1">
          <mxGeometry width="50" height="50" relative="1" as="geometry">
            <mxPoint x="320" y="110" as="sourcePoint" />
            <mxPoint x="377.9549999999999" y="162.01999999999998" as="targetPoint" />
          </mxGeometry>
        </mxCell>
        <mxCell id="NoShA8FLxkmNSl4R1kDr-61" value="Affiliation" style="rhombus;whiteSpace=wrap;html=1;fontFamily=Helvetica;fontSize=11;fontColor=default;" parent="1" vertex="1">
          <mxGeometry x="255" y="100" width="60" height="55" as="geometry" />
        </mxCell>
        <mxCell id="NoShA8FLxkmNSl4R1kDr-66" value="" style="endArrow=none;html=1;rounded=0;labelBackgroundColor=default;fontFamily=Helvetica;fontSize=11;fontColor=default;strokeColor=default;exitX=0.5;exitY=1;exitDx=0;exitDy=0;exitPerimeter=0;entryX=0.979;entryY=-0.028;entryDx=0;entryDy=0;entryPerimeter=0;" parent="1" source="NoShA8FLxkmNSl4R1kDr-47" edge="1" target="NoShA8FLxkmNSl4R1kDr-44">
          <mxGeometry width="50" height="50" relative="1" as="geometry">
            <mxPoint x="497.52" y="162.42000000000007" as="sourcePoint" />
            <mxPoint x="402.5000000000002" y="159.9999999999999" as="targetPoint" />
          </mxGeometry>
        </mxCell>
        <mxCell id="NoShA8FLxkmNSl4R1kDr-104" style="edgeStyle=orthogonalEdgeStyle;rounded=0;orthogonalLoop=1;jettySize=auto;html=1;entryX=1.003;entryY=0.149;entryDx=0;entryDy=0;entryPerimeter=0;labelBackgroundColor=default;fontFamily=Helvetica;fontSize=11;fontColor=default;endArrow=classic;strokeColor=default;" parent="1" source="NoShA8FLxkmNSl4R1kDr-69" target="NoShA8FLxkmNSl4R1kDr-1" edge="1">
          <mxGeometry relative="1" as="geometry">
            <Array as="points">
              <mxPoint x="760" y="74" />
              <mxPoint x="670" y="74" />
            </Array>
          </mxGeometry>
        </mxCell>
        <mxCell id="NoShA8FLxkmNSl4R1kDr-69" value="Follows" style="rhombus;whiteSpace=wrap;html=1;fontFamily=Helvetica;fontSize=11;fontColor=default;" parent="1" vertex="1">
          <mxGeometry x="730" y="15" width="60" height="55" as="geometry" />
        </mxCell>
        <mxCell id="NoShA8FLxkmNSl4R1kDr-72" value="Reply" style="swimlane;fontStyle=0;childLayout=stackLayout;horizontal=1;startSize=30;horizontalStack=0;resizeParent=1;resizeParentMax=0;resizeLast=0;collapsible=1;marginBottom=0;" parent="1" vertex="1">
          <mxGeometry x="310" y="430" width="140" height="30" as="geometry" />
        </mxCell>
        <mxCell id="NoShA8FLxkmNSl4R1kDr-77" value="Retweet" style="swimlane;fontStyle=0;childLayout=stackLayout;horizontal=1;startSize=30;horizontalStack=0;resizeParent=1;resizeParentMax=0;resizeLast=0;collapsible=1;marginBottom=0;" parent="1" vertex="1">
          <mxGeometry x="560" y="290" width="140" height="30" as="geometry" />
        </mxCell>
        <mxCell id="NoShA8FLxkmNSl4R1kDr-82" value="Hashtags" style="swimlane;fontStyle=0;childLayout=stackLayout;horizontal=1;startSize=30;horizontalStack=0;resizeParent=1;resizeParentMax=0;resizeLast=0;collapsible=1;marginBottom=0;" parent="1" vertex="1">
          <mxGeometry x="560" y="620" width="140" height="30" as="geometry" />
        </mxCell>
        <mxCell id="NoShA8FLxkmNSl4R1kDr-88" value="URL" style="swimlane;fontStyle=0;childLayout=stackLayout;horizontal=1;startSize=30;horizontalStack=0;resizeParent=1;resizeParentMax=0;resizeLast=0;collapsible=1;marginBottom=0;" parent="1" vertex="1">
          <mxGeometry x="380" y="620" width="140" height="30" as="geometry" />
        </mxCell>
        <mxCell id="NoShA8FLxkmNSl4R1kDr-109" style="edgeStyle=orthogonalEdgeStyle;rounded=0;orthogonalLoop=1;jettySize=auto;html=1;entryX=0.567;entryY=-0.002;entryDx=0;entryDy=0;entryPerimeter=0;labelBackgroundColor=default;fontFamily=Helvetica;fontSize=11;fontColor=default;endArrow=classic;strokeColor=default;" parent="1" source="NoShA8FLxkmNSl4R1kDr-94" target="NoShA8FLxkmNSl4R1kDr-7" edge="1">
          <mxGeometry relative="1" as="geometry">
            <Array as="points">
              <mxPoint x="810" y="118" />
              <mxPoint x="810" y="400" />
              <mxPoint x="779" y="400" />
            </Array>
          </mxGeometry>
        </mxCell>
        <mxCell id="NoShA8FLxkmNSl4R1kDr-94" value="Creates" style="rhombus;whiteSpace=wrap;html=1;fontFamily=Helvetica;fontSize=11;fontColor=default;" parent="1" vertex="1">
          <mxGeometry x="700" y="90" width="60" height="55" as="geometry" />
        </mxCell>
        <mxCell id="NoShA8FLxkmNSl4R1kDr-111" style="edgeStyle=orthogonalEdgeStyle;rounded=0;orthogonalLoop=1;jettySize=auto;html=1;labelBackgroundColor=default;fontFamily=Helvetica;fontSize=11;fontColor=default;endArrow=classic;strokeColor=default;shape=link;width=0.9243697478991599;" parent="1" source="NoShA8FLxkmNSl4R1kDr-95" target="NoShA8FLxkmNSl4R1kDr-72" edge="1">
          <mxGeometry relative="1" as="geometry" />
        </mxCell>
        <mxCell id="NoShA8FLxkmNSl4R1kDr-116" style="edgeStyle=orthogonalEdgeStyle;rounded=0;orthogonalLoop=1;jettySize=auto;html=1;entryX=0.001;entryY=0.033;entryDx=0;entryDy=0;entryPerimeter=0;labelBackgroundColor=default;fontFamily=Helvetica;fontSize=11;fontColor=default;endArrow=classic;strokeColor=default;shape=link;width=1.1475409836065573;" parent="1" source="NoShA8FLxkmNSl4R1kDr-95" edge="1">
          <mxGeometry relative="1" as="geometry">
            <Array as="points">
              <mxPoint x="465" y="415" />
              <mxPoint x="700" y="415" />
            </Array>
            <mxPoint x="700.1399999999999" y="470.99" as="targetPoint" />
          </mxGeometry>
        </mxCell>
        <mxCell id="NoShA8FLxkmNSl4R1kDr-95" value="WritesReply" style="rhombus;whiteSpace=wrap;html=1;fontFamily=Helvetica;fontSize=11;fontColor=default;" parent="1" vertex="1">
          <mxGeometry x="425" y="290" width="80" height="70" as="geometry" />
        </mxCell>
        <mxCell id="NoShA8FLxkmNSl4R1kDr-118" style="edgeStyle=orthogonalEdgeStyle;rounded=0;orthogonalLoop=1;jettySize=auto;html=1;labelBackgroundColor=default;fontFamily=Helvetica;fontSize=11;fontColor=default;endArrow=classic;strokeColor=default;" parent="1" source="NoShA8FLxkmNSl4R1kDr-96" target="NoShA8FLxkmNSl4R1kDr-77" edge="1">
          <mxGeometry relative="1" as="geometry" />
        </mxCell>
        <mxCell id="NoShA8FLxkmNSl4R1kDr-121" style="edgeStyle=orthogonalEdgeStyle;rounded=0;orthogonalLoop=1;jettySize=auto;html=1;entryX=0.345;entryY=-0.007;entryDx=0;entryDy=0;entryPerimeter=0;labelBackgroundColor=default;fontFamily=Helvetica;fontSize=11;fontColor=default;endArrow=classic;strokeColor=default;" parent="1" source="NoShA8FLxkmNSl4R1kDr-96" target="NoShA8FLxkmNSl4R1kDr-7" edge="1">
          <mxGeometry relative="1" as="geometry">
            <Array as="points">
              <mxPoint x="748" y="163" />
            </Array>
          </mxGeometry>
        </mxCell>
        <mxCell id="NoShA8FLxkmNSl4R1kDr-96" value="Retweets" style="rhombus;whiteSpace=wrap;html=1;fontFamily=Helvetica;fontSize=11;fontColor=default;" parent="1" vertex="1">
          <mxGeometry x="660" y="135" width="60" height="55" as="geometry" />
        </mxCell>
        <mxCell id="NoShA8FLxkmNSl4R1kDr-123" style="edgeStyle=orthogonalEdgeStyle;rounded=0;orthogonalLoop=1;jettySize=auto;html=1;labelBackgroundColor=default;fontFamily=Helvetica;fontSize=11;fontColor=default;endArrow=classic;strokeColor=default;entryX=0.543;entryY=-0.027;entryDx=0;entryDy=0;entryPerimeter=0;" parent="1" source="NoShA8FLxkmNSl4R1kDr-97" target="NoShA8FLxkmNSl4R1kDr-82" edge="1">
          <mxGeometry relative="1" as="geometry" />
        </mxCell>
        <mxCell id="NoShA8FLxkmNSl4R1kDr-97" value="Mentions" style="rhombus;whiteSpace=wrap;html=1;fontFamily=Helvetica;fontSize=11;fontColor=default;" parent="1" vertex="1">
          <mxGeometry x="560" y="487.5" width="60" height="55" as="geometry" />
        </mxCell>
        <mxCell id="NoShA8FLxkmNSl4R1kDr-125" style="edgeStyle=orthogonalEdgeStyle;rounded=0;orthogonalLoop=1;jettySize=auto;html=1;entryX=0.625;entryY=0.004;entryDx=0;entryDy=0;entryPerimeter=0;labelBackgroundColor=default;fontFamily=Helvetica;fontSize=11;fontColor=default;endArrow=classic;strokeColor=default;" parent="1" source="NoShA8FLxkmNSl4R1kDr-98" target="NoShA8FLxkmNSl4R1kDr-88" edge="1">
          <mxGeometry relative="1" as="geometry" />
        </mxCell>
        <mxCell id="NoShA8FLxkmNSl4R1kDr-98" value="References" style="rhombus;whiteSpace=wrap;html=1;fontFamily=Helvetica;fontSize=11;fontColor=default;" parent="1" vertex="1">
          <mxGeometry x="480" y="440" width="80" height="70" as="geometry" />
        </mxCell>
        <mxCell id="NoShA8FLxkmNSl4R1kDr-127" style="edgeStyle=orthogonalEdgeStyle;rounded=0;orthogonalLoop=1;jettySize=auto;html=1;labelBackgroundColor=default;fontFamily=Helvetica;fontSize=11;fontColor=default;endArrow=classic;strokeColor=default;" parent="1" source="NoShA8FLxkmNSl4R1kDr-99" target="NoShA8FLxkmNSl4R1kDr-32" edge="1">
          <mxGeometry relative="1" as="geometry" />
        </mxCell>
        <mxCell id="NoShA8FLxkmNSl4R1kDr-130" style="edgeStyle=orthogonalEdgeStyle;rounded=0;orthogonalLoop=1;jettySize=auto;html=1;labelBackgroundColor=default;fontFamily=Helvetica;fontSize=11;fontColor=default;endArrow=classic;strokeColor=default;entryX=0.064;entryY=1.053;entryDx=0;entryDy=0;entryPerimeter=0;" parent="1" source="NoShA8FLxkmNSl4R1kDr-99" target="NoShA8FLxkmNSl4R1kDr-1" edge="1">
          <mxGeometry relative="1" as="geometry">
            <mxPoint x="487" y="130" as="targetPoint" />
            <Array as="points">
              <mxPoint x="380" y="240" />
              <mxPoint x="469" y="240" />
            </Array>
          </mxGeometry>
        </mxCell>
        <mxCell id="NoShA8FLxkmNSl4R1kDr-99" value="Includes" style="rhombus;whiteSpace=wrap;html=1;fontFamily=Helvetica;fontSize=11;fontColor=default;" parent="1" vertex="1">
          <mxGeometry x="340" y="280" width="80" height="70" as="geometry" />
        </mxCell>
        <mxCell id="NoShA8FLxkmNSl4R1kDr-108" value="" style="endArrow=none;html=1;rounded=0;labelBackgroundColor=default;fontFamily=Helvetica;fontSize=11;fontColor=default;strokeColor=default;entryX=0.06;entryY=0.37;entryDx=0;entryDy=0;entryPerimeter=0;shape=link;width=1.0112359550561791;" parent="1" source="NoShA8FLxkmNSl4R1kDr-1" target="NoShA8FLxkmNSl4R1kDr-94" edge="1">
          <mxGeometry width="50" height="50" relative="1" as="geometry">
            <mxPoint x="621" y="122" as="sourcePoint" />
            <mxPoint x="689.3199999999999" y="121.6788679245283" as="targetPoint" />
          </mxGeometry>
        </mxCell>
        <mxCell id="NoShA8FLxkmNSl4R1kDr-110" value="" style="endArrow=none;html=1;rounded=0;labelBackgroundColor=default;fontFamily=Helvetica;fontSize=11;fontColor=default;strokeColor=default;exitX=0.5;exitY=1;exitDx=0;exitDy=0;entryX=0.598;entryY=0.046;entryDx=0;entryDy=0;entryPerimeter=0;shape=link;width=-1.162790697674419;" parent="1" source="NoShA8FLxkmNSl4R1kDr-1" target="NoShA8FLxkmNSl4R1kDr-95" edge="1">
          <mxGeometry width="50" height="50" relative="1" as="geometry">
            <mxPoint x="563.8600000000001" y="130.81000000000006" as="sourcePoint" />
            <mxPoint x="407.5" y="205" as="targetPoint" />
          </mxGeometry>
        </mxCell>
        <mxCell id="NoShA8FLxkmNSl4R1kDr-119" value="" style="endArrow=none;html=1;rounded=0;labelBackgroundColor=default;fontFamily=Helvetica;fontSize=11;fontColor=default;strokeColor=default;entryX=0.143;entryY=0.324;entryDx=0;entryDy=0;entryPerimeter=0;shape=link;width=-0.7936507936507926;" parent="1" source="NoShA8FLxkmNSl4R1kDr-1" target="NoShA8FLxkmNSl4R1kDr-96" edge="1">
          <mxGeometry width="50" height="50" relative="1" as="geometry">
            <mxPoint x="620" y="115" as="sourcePoint" />
            <mxPoint x="702.6199999999999" y="145.00000000000003" as="targetPoint" />
          </mxGeometry>
        </mxCell>
        <mxCell id="NoShA8FLxkmNSl4R1kDr-122" value="" style="endArrow=none;html=1;rounded=0;labelBackgroundColor=default;fontFamily=Helvetica;fontSize=11;fontColor=default;strokeColor=default;" parent="1" source="NoShA8FLxkmNSl4R1kDr-7" edge="1">
          <mxGeometry width="50" height="50" relative="1" as="geometry">
            <mxPoint x="700" y="513.6" as="sourcePoint" />
            <mxPoint x="620" y="512" as="targetPoint" />
          </mxGeometry>
        </mxCell>
        <mxCell id="NoShA8FLxkmNSl4R1kDr-124" value="" style="endArrow=none;html=1;rounded=0;labelBackgroundColor=default;fontFamily=Helvetica;fontSize=11;fontColor=default;strokeColor=default;exitX=0.149;exitY=0.924;exitDx=0;exitDy=0;exitPerimeter=0;entryX=1;entryY=0;entryDx=0;entryDy=0;" parent="1" source="NoShA8FLxkmNSl4R1kDr-7" target="NoShA8FLxkmNSl4R1kDr-98" edge="1">
          <mxGeometry width="50" height="50" relative="1" as="geometry">
            <mxPoint x="699.02" y="497.44999999999993" as="sourcePoint" />
            <mxPoint x="540.98" y="460" as="targetPoint" />
          </mxGeometry>
        </mxCell>
        <mxCell id="Ekl_bZAu5pBXoRuvaroH-1" value="user_id" style="ellipse;whiteSpace=wrap;html=1;align=center;fontStyle=4;" vertex="1" parent="1">
          <mxGeometry x="390" y="10" width="60" height="27" as="geometry" />
        </mxCell>
        <mxCell id="Ekl_bZAu5pBXoRuvaroH-2" value="" style="endArrow=none;html=1;rounded=0;labelBackgroundColor=default;fontFamily=Helvetica;fontSize=11;fontColor=default;strokeColor=default;exitX=0.5;exitY=1;exitDx=0;exitDy=0;" edge="1" parent="1" source="Ekl_bZAu5pBXoRuvaroH-1" target="NoShA8FLxkmNSl4R1kDr-1">
          <mxGeometry width="50" height="50" relative="1" as="geometry">
            <mxPoint x="436" y="116" as="sourcePoint" />
            <mxPoint x="490" y="133" as="targetPoint" />
          </mxGeometry>
        </mxCell>
        <mxCell id="Ekl_bZAu5pBXoRuvaroH-3" value="name" style="ellipse;whiteSpace=wrap;html=1;align=center;" vertex="1" parent="1">
          <mxGeometry x="460" y="10" width="60" height="25" as="geometry" />
        </mxCell>
        <mxCell id="Ekl_bZAu5pBXoRuvaroH-4" value="" style="endArrow=none;html=1;rounded=0;labelBackgroundColor=default;fontFamily=Helvetica;fontSize=11;fontColor=default;strokeColor=default;exitX=0.5;exitY=1;exitDx=0;exitDy=0;entryX=0.414;entryY=0.005;entryDx=0;entryDy=0;entryPerimeter=0;" edge="1" parent="1" source="Ekl_bZAu5pBXoRuvaroH-3" target="NoShA8FLxkmNSl4R1kDr-1">
          <mxGeometry width="50" height="50" relative="1" as="geometry">
            <mxPoint x="520" y="40" as="sourcePoint" />
            <mxPoint x="567" y="73" as="targetPoint" />
          </mxGeometry>
        </mxCell>
        <mxCell id="Ekl_bZAu5pBXoRuvaroH-5" value="email" style="ellipse;whiteSpace=wrap;html=1;align=center;" vertex="1" parent="1">
          <mxGeometry x="530" y="5" width="60" height="25" as="geometry" />
        </mxCell>
        <mxCell id="Ekl_bZAu5pBXoRuvaroH-6" value="" style="endArrow=none;html=1;rounded=0;labelBackgroundColor=default;fontFamily=Helvetica;fontSize=11;fontColor=default;strokeColor=default;entryX=0.602;entryY=-0.019;entryDx=0;entryDy=0;entryPerimeter=0;" edge="1" parent="1" source="Ekl_bZAu5pBXoRuvaroH-5" target="NoShA8FLxkmNSl4R1kDr-1">
          <mxGeometry width="50" height="50" relative="1" as="geometry">
            <mxPoint x="540" y="45" as="sourcePoint" />
            <mxPoint x="548" y="80" as="targetPoint" />
          </mxGeometry>
        </mxCell>
        <mxCell id="Ekl_bZAu5pBXoRuvaroH-7" value="location" style="ellipse;whiteSpace=wrap;html=1;align=center;" vertex="1" parent="1">
          <mxGeometry x="590" y="5" width="60" height="25" as="geometry" />
        </mxCell>
        <mxCell id="Ekl_bZAu5pBXoRuvaroH-8" value="" style="endArrow=none;html=1;rounded=0;labelBackgroundColor=default;fontFamily=Helvetica;fontSize=11;fontColor=default;strokeColor=default;entryX=0.822;entryY=-0.048;entryDx=0;entryDy=0;entryPerimeter=0;exitX=0.343;exitY=0.909;exitDx=0;exitDy=0;exitPerimeter=0;" edge="1" parent="1" source="Ekl_bZAu5pBXoRuvaroH-7" target="NoShA8FLxkmNSl4R1kDr-1">
          <mxGeometry width="50" height="50" relative="1" as="geometry">
            <mxPoint x="600" y="45" as="sourcePoint" />
            <mxPoint x="624" y="69" as="targetPoint" />
          </mxGeometry>
        </mxCell>
        <mxCell id="Ekl_bZAu5pBXoRuvaroH-9" value="date_time" style="ellipse;whiteSpace=wrap;html=1;align=center;" vertex="1" parent="1">
          <mxGeometry x="500" y="280" width="60" height="25" as="geometry" />
        </mxCell>
        <mxCell id="Ekl_bZAu5pBXoRuvaroH-10" value="" style="endArrow=none;html=1;rounded=0;labelBackgroundColor=default;fontFamily=Helvetica;fontSize=11;fontColor=default;strokeColor=default;" edge="1" parent="1" source="Ekl_bZAu5pBXoRuvaroH-9" target="NoShA8FLxkmNSl4R1kDr-77">
          <mxGeometry width="50" height="50" relative="1" as="geometry">
            <mxPoint x="680" y="266" as="sourcePoint" />
            <mxPoint x="704" y="290" as="targetPoint" />
          </mxGeometry>
        </mxCell>
        <mxCell id="Ekl_bZAu5pBXoRuvaroH-12" value="user_id" style="ellipse;whiteSpace=wrap;html=1;align=center;" vertex="1" parent="1">
          <mxGeometry x="550" y="205" width="60" height="25" as="geometry" />
        </mxCell>
        <mxCell id="Ekl_bZAu5pBXoRuvaroH-13" value="" style="endArrow=none;html=1;rounded=0;labelBackgroundColor=default;fontFamily=Helvetica;fontSize=11;fontColor=default;strokeColor=default;entryX=0.25;entryY=0;entryDx=0;entryDy=0;" edge="1" parent="1" source="Ekl_bZAu5pBXoRuvaroH-12" target="NoShA8FLxkmNSl4R1kDr-77">
          <mxGeometry width="50" height="50" relative="1" as="geometry">
            <mxPoint x="540" y="210" as="sourcePoint" />
            <mxPoint x="564" y="234" as="targetPoint" />
          </mxGeometry>
        </mxCell>
        <mxCell id="Ekl_bZAu5pBXoRuvaroH-14" value="tweet_id" style="ellipse;whiteSpace=wrap;html=1;align=center;" vertex="1" parent="1">
          <mxGeometry x="600" y="180" width="60" height="25" as="geometry" />
        </mxCell>
        <mxCell id="Ekl_bZAu5pBXoRuvaroH-15" value="" style="endArrow=none;html=1;rounded=0;labelBackgroundColor=default;fontFamily=Helvetica;fontSize=11;fontColor=default;strokeColor=default;entryX=0.31;entryY=-0.044;entryDx=0;entryDy=0;entryPerimeter=0;" edge="1" parent="1" source="Ekl_bZAu5pBXoRuvaroH-14" target="NoShA8FLxkmNSl4R1kDr-77">
          <mxGeometry width="50" height="50" relative="1" as="geometry">
            <mxPoint x="590" y="175" as="sourcePoint" />
            <mxPoint x="645" y="205" as="targetPoint" />
          </mxGeometry>
        </mxCell>
        <mxCell id="Ekl_bZAu5pBXoRuvaroH-16" value="reply_id" style="ellipse;whiteSpace=wrap;html=1;align=center;fontStyle=4;" vertex="1" parent="1">
          <mxGeometry x="520" y="238" width="60" height="27" as="geometry" />
        </mxCell>
        <mxCell id="Ekl_bZAu5pBXoRuvaroH-17" value="" style="endArrow=none;html=1;rounded=0;labelBackgroundColor=default;fontFamily=Helvetica;fontSize=11;fontColor=default;strokeColor=default;entryX=0.75;entryY=0.963;entryDx=0;entryDy=0;entryPerimeter=0;exitX=0.21;exitY=0.022;exitDx=0;exitDy=0;exitPerimeter=0;" edge="1" parent="1" source="NoShA8FLxkmNSl4R1kDr-77" target="Ekl_bZAu5pBXoRuvaroH-16">
          <mxGeometry width="50" height="50" relative="1" as="geometry">
            <mxPoint x="716.0526315789473" y="410" as="sourcePoint" />
            <mxPoint x="615" y="250" as="targetPoint" />
          </mxGeometry>
        </mxCell>
        <mxCell id="Ekl_bZAu5pBXoRuvaroH-19" value="credit_card_number" style="ellipse;whiteSpace=wrap;html=1;align=center;fontStyle=4;" vertex="1" parent="1">
          <mxGeometry y="15" width="133.7" height="27" as="geometry" />
        </mxCell>
        <mxCell id="Ekl_bZAu5pBXoRuvaroH-20" value="" style="endArrow=none;html=1;rounded=0;labelBackgroundColor=default;fontFamily=Helvetica;fontSize=11;fontColor=default;strokeColor=default;exitX=0.34;exitY=0.949;exitDx=0;exitDy=0;exitPerimeter=0;" edge="1" parent="1" source="Ekl_bZAu5pBXoRuvaroH-19" target="NoShA8FLxkmNSl4R1kDr-37">
          <mxGeometry width="50" height="50" relative="1" as="geometry">
            <mxPoint x="-10.000000000000057" y="25.659999999999968" as="sourcePoint" />
            <mxPoint x="209.7" y="80" as="targetPoint" />
          </mxGeometry>
        </mxCell>
        <mxCell id="Ekl_bZAu5pBXoRuvaroH-21" value="verification_date" style="ellipse;whiteSpace=wrap;html=1;align=center;fontStyle=4;" vertex="1" parent="1">
          <mxGeometry x="20" y="73" width="133.7" height="27" as="geometry" />
        </mxCell>
        <mxCell id="Ekl_bZAu5pBXoRuvaroH-22" value="" style="endArrow=none;html=1;rounded=0;labelBackgroundColor=default;fontFamily=Helvetica;fontSize=11;fontColor=default;strokeColor=default;exitX=0.34;exitY=0.949;exitDx=0;exitDy=0;exitPerimeter=0;entryX=0.34;entryY=0.02;entryDx=0;entryDy=0;entryPerimeter=0;" edge="1" parent="1" source="Ekl_bZAu5pBXoRuvaroH-21" target="NoShA8FLxkmNSl4R1kDr-42">
          <mxGeometry width="50" height="50" relative="1" as="geometry">
            <mxPoint x="-5.684341886080802e-14" y="63.65999999999997" as="sourcePoint" />
            <mxPoint x="185" y="77" as="targetPoint" />
          </mxGeometry>
        </mxCell>
        <mxCell id="Ekl_bZAu5pBXoRuvaroH-23" value="owner_user_id" style="ellipse;whiteSpace=wrap;html=1;align=center;fontStyle=4;" vertex="1" parent="1">
          <mxGeometry x="10" y="170" width="133.7" height="27" as="geometry" />
        </mxCell>
        <mxCell id="Ekl_bZAu5pBXoRuvaroH-24" value="" style="endArrow=none;html=1;rounded=0;labelBackgroundColor=default;fontFamily=Helvetica;fontSize=11;fontColor=default;strokeColor=default;exitX=0.94;exitY=0.786;exitDx=0;exitDy=0;exitPerimeter=0;" edge="1" parent="1" source="Ekl_bZAu5pBXoRuvaroH-23" target="NoShA8FLxkmNSl4R1kDr-44">
          <mxGeometry width="50" height="50" relative="1" as="geometry">
            <mxPoint x="9.999999999999943" y="170.65999999999997" as="sourcePoint" />
            <mxPoint x="128" y="220" as="targetPoint" />
          </mxGeometry>
        </mxCell>
        <mxCell id="Ekl_bZAu5pBXoRuvaroH-25" value="list_id" style="ellipse;whiteSpace=wrap;html=1;align=center;fontStyle=4;" vertex="1" parent="1">
          <mxGeometry x="30" y="311.5" width="60" height="27" as="geometry" />
        </mxCell>
        <mxCell id="Ekl_bZAu5pBXoRuvaroH-26" value="" style="endArrow=none;html=1;rounded=0;labelBackgroundColor=default;fontFamily=Helvetica;fontSize=11;fontColor=default;strokeColor=default;exitX=0.5;exitY=1;exitDx=0;exitDy=0;" edge="1" parent="1" source="Ekl_bZAu5pBXoRuvaroH-25" target="NoShA8FLxkmNSl4R1kDr-32">
          <mxGeometry width="50" height="50" relative="1" as="geometry">
            <mxPoint x="136" y="371" as="sourcePoint" />
            <mxPoint x="196" y="325" as="targetPoint" />
          </mxGeometry>
        </mxCell>
        <mxCell id="Ekl_bZAu5pBXoRuvaroH-27" value="name" style="ellipse;whiteSpace=wrap;html=1;align=center;" vertex="1" parent="1">
          <mxGeometry x="30" y="360" width="60" height="25" as="geometry" />
        </mxCell>
        <mxCell id="Ekl_bZAu5pBXoRuvaroH-28" value="" style="endArrow=none;html=1;rounded=0;labelBackgroundColor=default;fontFamily=Helvetica;fontSize=11;fontColor=default;strokeColor=default;exitX=0.7;exitY=1.029;exitDx=0;exitDy=0;entryX=0.221;entryY=1.028;entryDx=0;entryDy=0;entryPerimeter=0;exitPerimeter=0;" edge="1" parent="1" source="Ekl_bZAu5pBXoRuvaroH-27" target="NoShA8FLxkmNSl4R1kDr-32">
          <mxGeometry width="50" height="50" relative="1" as="geometry">
            <mxPoint x="-193" y="602.5" as="sourcePoint" />
            <mxPoint x="175" y="350" as="targetPoint" />
          </mxGeometry>
        </mxCell>
        <mxCell id="Ekl_bZAu5pBXoRuvaroH-29" value="user_id" style="ellipse;whiteSpace=wrap;html=1;align=center;" vertex="1" parent="1">
          <mxGeometry x="83.7" y="270" width="60" height="25" as="geometry" />
        </mxCell>
        <mxCell id="Ekl_bZAu5pBXoRuvaroH-30" value="" style="endArrow=none;html=1;rounded=0;labelBackgroundColor=default;fontFamily=Helvetica;fontSize=11;fontColor=default;strokeColor=default;exitX=0.5;exitY=1;exitDx=0;exitDy=0;" edge="1" parent="1" source="Ekl_bZAu5pBXoRuvaroH-29" target="NoShA8FLxkmNSl4R1kDr-32">
          <mxGeometry width="50" height="50" relative="1" as="geometry">
            <mxPoint x="80" y="370" as="sourcePoint" />
            <mxPoint x="78" y="400" as="targetPoint" />
          </mxGeometry>
        </mxCell>
        <mxCell id="Ekl_bZAu5pBXoRuvaroH-31" value="date_time" style="ellipse;whiteSpace=wrap;html=1;align=center;" vertex="1" parent="1">
          <mxGeometry x="175" y="415" width="60" height="25" as="geometry" />
        </mxCell>
        <mxCell id="Ekl_bZAu5pBXoRuvaroH-32" value="" style="endArrow=none;html=1;rounded=0;labelBackgroundColor=default;fontFamily=Helvetica;fontSize=11;fontColor=default;strokeColor=default;exitX=0.5;exitY=1;exitDx=0;exitDy=0;" edge="1" parent="1" source="Ekl_bZAu5pBXoRuvaroH-31" target="NoShA8FLxkmNSl4R1kDr-72">
          <mxGeometry width="50" height="50" relative="1" as="geometry">
            <mxPoint x="206.3" y="500" as="sourcePoint" />
            <mxPoint x="298.3" y="440" as="targetPoint" />
          </mxGeometry>
        </mxCell>
        <mxCell id="Ekl_bZAu5pBXoRuvaroH-33" value="author_user_id" style="ellipse;whiteSpace=wrap;html=1;align=center;" vertex="1" parent="1">
          <mxGeometry x="190" y="380" width="125" height="25" as="geometry" />
        </mxCell>
        <mxCell id="Ekl_bZAu5pBXoRuvaroH-34" value="" style="endArrow=none;html=1;rounded=0;labelBackgroundColor=default;fontFamily=Helvetica;fontSize=11;fontColor=default;strokeColor=default;exitX=0.5;exitY=1;exitDx=0;exitDy=0;entryX=0.018;entryY=0.141;entryDx=0;entryDy=0;entryPerimeter=0;" edge="1" parent="1" source="Ekl_bZAu5pBXoRuvaroH-33" target="NoShA8FLxkmNSl4R1kDr-72">
          <mxGeometry width="50" height="50" relative="1" as="geometry">
            <mxPoint x="100" y="390" as="sourcePoint" />
            <mxPoint x="192" y="330" as="targetPoint" />
          </mxGeometry>
        </mxCell>
        <mxCell id="Ekl_bZAu5pBXoRuvaroH-37" value="original_tweet_id" style="ellipse;whiteSpace=wrap;html=1;align=center;" vertex="1" parent="1">
          <mxGeometry x="106.3" y="460" width="133.7" height="25" as="geometry" />
        </mxCell>
        <mxCell id="Ekl_bZAu5pBXoRuvaroH-38" value="" style="endArrow=none;html=1;rounded=0;labelBackgroundColor=default;fontFamily=Helvetica;fontSize=11;fontColor=default;strokeColor=default;exitX=0.5;exitY=1;exitDx=0;exitDy=0;entryX=0;entryY=1;entryDx=0;entryDy=0;" edge="1" parent="1" source="Ekl_bZAu5pBXoRuvaroH-37" target="NoShA8FLxkmNSl4R1kDr-72">
          <mxGeometry width="50" height="50" relative="1" as="geometry">
            <mxPoint x="175" y="571" as="sourcePoint" />
            <mxPoint x="278.7" y="550" as="targetPoint" />
          </mxGeometry>
        </mxCell>
        <mxCell id="Ekl_bZAu5pBXoRuvaroH-39" value="reply_id" style="ellipse;whiteSpace=wrap;html=1;align=center;fontStyle=4;" vertex="1" parent="1">
          <mxGeometry x="203.7" y="500" width="60" height="27" as="geometry" />
        </mxCell>
        <mxCell id="Ekl_bZAu5pBXoRuvaroH-40" value="" style="endArrow=none;html=1;rounded=0;labelBackgroundColor=default;fontFamily=Helvetica;fontSize=11;fontColor=default;strokeColor=default;exitX=0.5;exitY=1;exitDx=0;exitDy=0;entryX=0.352;entryY=0.925;entryDx=0;entryDy=0;entryPerimeter=0;" edge="1" parent="1" source="Ekl_bZAu5pBXoRuvaroH-39" target="NoShA8FLxkmNSl4R1kDr-72">
          <mxGeometry width="50" height="50" relative="1" as="geometry">
            <mxPoint x="266" y="596.5" as="sourcePoint" />
            <mxPoint x="349.48000000000013" y="488.67999999999984" as="targetPoint" />
          </mxGeometry>
        </mxCell>
        <mxCell id="Ekl_bZAu5pBXoRuvaroH-41" value="short_text" style="ellipse;whiteSpace=wrap;html=1;align=center;fontStyle=4;" vertex="1" parent="1">
          <mxGeometry x="280" y="593" width="60" height="27" as="geometry" />
        </mxCell>
        <mxCell id="Ekl_bZAu5pBXoRuvaroH-42" value="" style="endArrow=none;html=1;rounded=0;labelBackgroundColor=default;fontFamily=Helvetica;fontSize=11;fontColor=default;strokeColor=default;exitX=0.5;exitY=1;exitDx=0;exitDy=0;entryX=-0.003;entryY=0.152;entryDx=0;entryDy=0;entryPerimeter=0;" edge="1" parent="1" source="Ekl_bZAu5pBXoRuvaroH-41" target="NoShA8FLxkmNSl4R1kDr-88">
          <mxGeometry width="50" height="50" relative="1" as="geometry">
            <mxPoint x="287" y="888.5" as="sourcePoint" />
            <mxPoint x="380" y="750" as="targetPoint" />
          </mxGeometry>
        </mxCell>
        <mxCell id="Ekl_bZAu5pBXoRuvaroH-44" value="" style="endArrow=none;html=1;rounded=0;labelBackgroundColor=default;fontFamily=Helvetica;fontSize=11;fontColor=default;strokeColor=default;exitX=1;exitY=1;exitDx=0;exitDy=0;" edge="1" parent="1" source="Ekl_bZAu5pBXoRuvaroH-45" target="NoShA8FLxkmNSl4R1kDr-88">
          <mxGeometry width="50" height="50" relative="1" as="geometry">
            <mxPoint x="240" y="667" as="sourcePoint" />
            <mxPoint x="446.3" y="664.0133912414044" as="targetPoint" />
          </mxGeometry>
        </mxCell>
        <mxCell id="Ekl_bZAu5pBXoRuvaroH-45" value="long_text" style="ellipse;whiteSpace=wrap;html=1;align=center;" vertex="1" parent="1">
          <mxGeometry x="240" y="622.5" width="60" height="25" as="geometry" />
        </mxCell>
        <mxCell id="Ekl_bZAu5pBXoRuvaroH-46" value="user_id" style="ellipse;whiteSpace=wrap;html=1;align=center;" vertex="1" parent="1">
          <mxGeometry x="240" y="660" width="60" height="25" as="geometry" />
        </mxCell>
        <mxCell id="Ekl_bZAu5pBXoRuvaroH-47" value="tweet_id" style="ellipse;whiteSpace=wrap;html=1;align=center;" vertex="1" parent="1">
          <mxGeometry x="255" y="710" width="60" height="25" as="geometry" />
        </mxCell>
        <mxCell id="Ekl_bZAu5pBXoRuvaroH-48" value="" style="endArrow=none;html=1;rounded=0;labelBackgroundColor=default;fontFamily=Helvetica;fontSize=11;fontColor=default;strokeColor=default;exitX=1;exitY=0;exitDx=0;exitDy=0;" edge="1" parent="1" source="Ekl_bZAu5pBXoRuvaroH-46" target="NoShA8FLxkmNSl4R1kDr-88">
          <mxGeometry width="50" height="50" relative="1" as="geometry">
            <mxPoint x="242" y="651" as="sourcePoint" />
            <mxPoint x="390" y="647" as="targetPoint" />
          </mxGeometry>
        </mxCell>
        <mxCell id="Ekl_bZAu5pBXoRuvaroH-49" value="" style="endArrow=none;html=1;rounded=0;labelBackgroundColor=default;fontFamily=Helvetica;fontSize=11;fontColor=default;strokeColor=default;exitX=1;exitY=0;exitDx=0;exitDy=0;entryX=0.334;entryY=0.92;entryDx=0;entryDy=0;entryPerimeter=0;" edge="1" parent="1" source="Ekl_bZAu5pBXoRuvaroH-47" target="NoShA8FLxkmNSl4R1kDr-88">
          <mxGeometry width="50" height="50" relative="1" as="geometry">
            <mxPoint x="252" y="704" as="sourcePoint" />
            <mxPoint x="407" y="660" as="targetPoint" />
          </mxGeometry>
        </mxCell>
        <mxCell id="Ekl_bZAu5pBXoRuvaroH-51" value="term" style="ellipse;whiteSpace=wrap;html=1;align=center;fontStyle=4;" vertex="1" parent="1">
          <mxGeometry x="470" y="735" width="60" height="32" as="geometry" />
        </mxCell>
        <mxCell id="Ekl_bZAu5pBXoRuvaroH-52" value="" style="endArrow=none;html=1;rounded=0;labelBackgroundColor=default;fontFamily=Helvetica;fontSize=11;fontColor=default;strokeColor=default;exitX=0.5;exitY=0;exitDx=0;exitDy=0;entryX=-0.002;entryY=0.123;entryDx=0;entryDy=0;entryPerimeter=0;" edge="1" parent="1" source="Ekl_bZAu5pBXoRuvaroH-51" target="NoShA8FLxkmNSl4R1kDr-82">
          <mxGeometry width="50" height="50" relative="1" as="geometry">
            <mxPoint x="447" y="1033.5" as="sourcePoint" />
            <mxPoint x="540" y="770" as="targetPoint" />
          </mxGeometry>
        </mxCell>
        <mxCell id="Ekl_bZAu5pBXoRuvaroH-53" value="date_time" style="ellipse;whiteSpace=wrap;html=1;align=center;" vertex="1" parent="1">
          <mxGeometry x="535" y="720" width="65" height="30" as="geometry" />
        </mxCell>
        <mxCell id="Ekl_bZAu5pBXoRuvaroH-54" value="author_user_id" style="ellipse;whiteSpace=wrap;html=1;align=center;" vertex="1" parent="1">
          <mxGeometry x="545" y="760" width="115" height="30" as="geometry" />
        </mxCell>
        <mxCell id="Ekl_bZAu5pBXoRuvaroH-55" value="original_tweet_id" style="ellipse;whiteSpace=wrap;html=1;align=center;" vertex="1" parent="1">
          <mxGeometry x="590" y="790" width="115" height="30" as="geometry" />
        </mxCell>
        <mxCell id="Ekl_bZAu5pBXoRuvaroH-56" value="" style="endArrow=none;html=1;rounded=0;labelBackgroundColor=default;fontFamily=Helvetica;fontSize=11;fontColor=default;strokeColor=default;" edge="1" parent="1" source="Ekl_bZAu5pBXoRuvaroH-53">
          <mxGeometry width="50" height="50" relative="1" as="geometry">
            <mxPoint x="480" y="748" as="sourcePoint" />
            <mxPoint x="600" y="650" as="targetPoint" />
          </mxGeometry>
        </mxCell>
        <mxCell id="Ekl_bZAu5pBXoRuvaroH-57" value="" style="endArrow=none;html=1;rounded=0;labelBackgroundColor=default;fontFamily=Helvetica;fontSize=11;fontColor=default;strokeColor=default;exitX=0.721;exitY=0.027;exitDx=0;exitDy=0;exitPerimeter=0;" edge="1" parent="1" source="Ekl_bZAu5pBXoRuvaroH-54">
          <mxGeometry width="50" height="50" relative="1" as="geometry">
            <mxPoint x="575" y="730" as="sourcePoint" />
            <mxPoint x="650" y="650" as="targetPoint" />
          </mxGeometry>
        </mxCell>
        <mxCell id="Ekl_bZAu5pBXoRuvaroH-58" value="" style="endArrow=none;html=1;rounded=0;labelBackgroundColor=default;fontFamily=Helvetica;fontSize=11;fontColor=default;strokeColor=default;exitX=0.812;exitY=0.113;exitDx=0;exitDy=0;exitPerimeter=0;" edge="1" parent="1" source="Ekl_bZAu5pBXoRuvaroH-55">
          <mxGeometry width="50" height="50" relative="1" as="geometry">
            <mxPoint x="585" y="740" as="sourcePoint" />
            <mxPoint x="680" y="650" as="targetPoint" />
          </mxGeometry>
        </mxCell>
        <mxCell id="Ekl_bZAu5pBXoRuvaroH-59" value="date_time" style="ellipse;whiteSpace=wrap;html=1;align=center;" vertex="1" parent="1">
          <mxGeometry x="650" y="550" width="115" height="30" as="geometry" />
        </mxCell>
        <mxCell id="Ekl_bZAu5pBXoRuvaroH-60" value="tweet_id" style="ellipse;whiteSpace=wrap;html=1;align=center;fontStyle=4;" vertex="1" parent="1">
          <mxGeometry x="710" y="500" width="60" height="32" as="geometry" />
        </mxCell>
        <mxCell id="Ekl_bZAu5pBXoRuvaroH-61" value="tweet_text" style="ellipse;whiteSpace=wrap;html=1;align=center;" vertex="1" parent="1">
          <mxGeometry x="712.5" y="590" width="115" height="30" as="geometry" />
        </mxCell>
        <mxCell id="Ekl_bZAu5pBXoRuvaroH-62" value="user_id" style="ellipse;whiteSpace=wrap;html=1;align=center;" vertex="1" parent="1">
          <mxGeometry x="810" y="550" width="115" height="30" as="geometry" />
        </mxCell>
        <mxCell id="Ekl_bZAu5pBXoRuvaroH-63" value="" style="endArrow=none;html=1;rounded=0;labelBackgroundColor=default;fontFamily=Helvetica;fontSize=11;fontColor=default;strokeColor=default;exitX=0.096;exitY=1.057;exitDx=0;exitDy=0;exitPerimeter=0;entryX=0.356;entryY=-0.114;entryDx=0;entryDy=0;entryPerimeter=0;" edge="1" parent="1" source="NoShA8FLxkmNSl4R1kDr-7" target="Ekl_bZAu5pBXoRuvaroH-59">
          <mxGeometry width="50" height="50" relative="1" as="geometry">
            <mxPoint x="750.5400000000002" y="591.71" as="sourcePoint" />
            <mxPoint x="630" y="522" as="targetPoint" />
          </mxGeometry>
        </mxCell>
        <mxCell id="Ekl_bZAu5pBXoRuvaroH-64" value="" style="endArrow=none;html=1;rounded=0;labelBackgroundColor=default;fontFamily=Helvetica;fontSize=11;fontColor=default;strokeColor=default;exitX=0.324;exitY=0.943;exitDx=0;exitDy=0;exitPerimeter=0;" edge="1" parent="1" source="NoShA8FLxkmNSl4R1kDr-7" target="Ekl_bZAu5pBXoRuvaroH-60">
          <mxGeometry width="50" height="50" relative="1" as="geometry">
            <mxPoint x="723" y="482" as="sourcePoint" />
            <mxPoint x="701" y="557" as="targetPoint" />
          </mxGeometry>
        </mxCell>
        <mxCell id="Ekl_bZAu5pBXoRuvaroH-65" value="" style="endArrow=none;html=1;rounded=0;labelBackgroundColor=default;fontFamily=Helvetica;fontSize=11;fontColor=default;strokeColor=default;exitX=0.692;exitY=1.019;exitDx=0;exitDy=0;exitPerimeter=0;entryX=0.445;entryY=-0.019;entryDx=0;entryDy=0;entryPerimeter=0;" edge="1" parent="1" source="NoShA8FLxkmNSl4R1kDr-7" target="Ekl_bZAu5pBXoRuvaroH-61">
          <mxGeometry width="50" height="50" relative="1" as="geometry">
            <mxPoint x="733" y="492" as="sourcePoint" />
            <mxPoint x="711" y="567" as="targetPoint" />
          </mxGeometry>
        </mxCell>
        <mxCell id="Ekl_bZAu5pBXoRuvaroH-66" value="" style="endArrow=none;html=1;rounded=0;labelBackgroundColor=default;fontFamily=Helvetica;fontSize=11;fontColor=default;strokeColor=default;exitX=0.957;exitY=0.947;exitDx=0;exitDy=0;exitPerimeter=0;" edge="1" parent="1" source="NoShA8FLxkmNSl4R1kDr-7" target="Ekl_bZAu5pBXoRuvaroH-62">
          <mxGeometry width="50" height="50" relative="1" as="geometry">
            <mxPoint x="743" y="502" as="sourcePoint" />
            <mxPoint x="721" y="577" as="targetPoint" />
          </mxGeometry>
        </mxCell>
      </root>
    </mxGraphModel>
  </diagram>
</mxfile>
